<?xml version="1.0" encoding="UTF-8"?>
<svg id="Layer_2" data-name="Layer 2" xmlns="http://www.w3.org/2000/svg" viewBox="0 0 264.12 264.12">
  <defs>
    <style>
      .cls-1 {
        fill: #f95015;
        stroke-width: 0px;
      }
    </style>
  </defs>
  <g id="_Слой_1" data-name="Слой 1">
    <g>
      <rect class="cls-1" x="0" y="229.39" width="57.39" height="34.73" rx="2.5" ry="2.5" transform="translate(57.39 493.5) rotate(180)"/>
      <path class="cls-1" d="m168.54,26.23V8.5c0-4.7,3.81-8.5,8.5-8.5h78.57c4.7,0,8.5,3.81,8.5,8.5v88.27c0,4.7-3.81,8.5-8.5,8.5h-17.73c-4.7,0-8.5-3.81-8.5-8.5v-53.54c0-4.7-3.81-8.5-8.5-8.5h-43.84c-4.7,0-8.5-3.81-8.5-8.5Z"/>
      <path class="cls-1" d="m0,147.08v-17.73c0-4.7,3.81-8.5,8.5-8.5h40.38c4.7,0,8.5,3.81,8.5,8.5v37.26c0,4.7,3.81,8.5,8.5,8.5h29.82c4.7,0,8.5,3.81,8.5,8.5v37.26c0,4.7,3.81,8.5,8.5,8.5h108.17c4.7,0,8.5-3.81,8.5-8.5v-56.8c0-4.7-3.81-8.5-8.5-8.5h-45.95c-4.7,0-8.5-3.81-8.5-8.5v-43.42c0-4.7-3.81-8.5-8.5-8.5h-29.67c-4.7,0-8.5-3.81-8.5-8.5v-43.43c0-4.7-3.81-8.5-8.5-8.5h-24.05c-4.7,0-8.5-3.81-8.5-8.5V8.5c0-4.7,3.81-8.5,8.5-8.5h57.25c4.7,0,8.5,3.81,8.5,8.5v43.42c0,4.7,3.81,8.5,8.5,8.5h29.67c4.7,0,8.5,3.81,8.5,8.5v43.42c0,4.7,3.81,8.5,8.5,8.5h47.48c4.7,0,8.5,3.81,8.5,8.5v126.27c0,4.7-3.81,8.5-8.5,8.5H78.95c-4.7,0-8.5-3.81-8.5-8.5v-37.26c0-4.7-3.81-8.5-8.5-8.5h-29.83c-4.7,0-8.5-3.81-8.5-8.5v-37.26c0-4.7-3.81-8.5-8.5-8.5h-6.61c-4.7,0-8.5-3.81-8.5-8.5Z"/>
      <path class="cls-1" d="m25.08,86.66v-17.73c0-4.7,3.81-8.5,8.5-8.5h61.84c4.7,0,8.5,3.81,8.5,8.5v43.42c0,4.7,3.81,8.5,8.5,8.5h32.03c4.7,0,8.5,3.81,8.5,8.5v37.26c0,4.7,3.81,8.5,8.5,8.5h39.69c4.7,0,8.5,3.81,8.5,8.5v17.73c0,4.7-3.81,8.5-8.5,8.5h-73.46c-4.7,0-8.5-3.81-8.5-8.5v-37.26c0-4.7-3.81-8.5-8.5-8.5h-31.45c-4.7,0-8.5-3.81-8.5-8.5v-43.42c0-4.7-3.81-8.5-8.5-8.5h-28.65c-4.7,0-8.5-3.81-8.5-8.5Z"/>
      <rect class="cls-1" x="25.08" y="0" width="34.73" height="34.73" rx="2.5" ry="2.5" transform="translate(84.9 34.73) rotate(180)"/>
    </g>
  </g>
</svg>