<?xml version="1.0" encoding="UTF-8" standalone="no"?>
<svg
   id="Layer_2"
   data-name="Layer 2"
   viewBox="0 0 64 64.000002"
   version="1.1"
   sodipodi:docname="Asset 4.svg"
   width="64"
   height="64"
   inkscape:export-filename="Asset 4.png"
   inkscape:export-xdpi="96"
   inkscape:export-ydpi="96"
   inkscape:version="1.3 (0e150ed, 2023-07-21)"
   xmlns:inkscape="http://www.inkscape.org/namespaces/inkscape"
   xmlns:sodipodi="http://sodipodi.sourceforge.net/DTD/sodipodi-0.dtd"
   xmlns="http://www.w3.org/2000/svg"
   xmlns:svg="http://www.w3.org/2000/svg">
  <sodipodi:namedview
     id="namedview11"
     pagecolor="#ffffff"
     bordercolor="#000000"
     borderopacity="0.25"
     inkscape:showpageshadow="2"
     inkscape:pageopacity="0.0"
     inkscape:pagecheckerboard="0"
     inkscape:deskcolor="#d1d1d1"
     inkscape:zoom="4.29155"
     inkscape:cx="39.845744"
     inkscape:cy="15.612075"
     inkscape:window-width="1512"
     inkscape:window-height="945"
     inkscape:window-x="0"
     inkscape:window-y="37"
     inkscape:window-maximized="0"
     inkscape:current-layer="g11" />
  <defs
     id="defs1">
    <style
       id="style1">&#10;      .cls-1 {&#10;        fill: #fff;&#10;      }&#10;&#10;      .cls-1, .cls-2 {&#10;        stroke-width: 0px;&#10;      }&#10;&#10;      .cls-2 {&#10;        fill: #f95015;&#10;      }&#10;    </style>
  </defs>
  <g
     id="_Слой_1"
     data-name="Слой 1">
    <g
       id="g11">
      <path
         class="cls-1"
         d="m 484.34,283.25 v -20.23 h -2.02 c -3.51,4.32 -8.23,8.36 -14.16,12.14 -12.95,8.1 -27.79,12.14 -44.51,12.14 -22.66,0 -40.8,-6.07 -54.42,-18.21 -13.63,-12.14 -20.43,-26.97 -20.43,-44.51 0,-21.04 7.28,-37.76 21.85,-50.18 14.57,-12.41 35.61,-18.61 63.13,-18.61 h 46.53 v -4.05 c 0,-11.59 -3.31,-20.9 -9.91,-27.92 -6.61,-7.01 -15.45,-10.52 -26.5,-10.52 -11.05,0 -18.96,2.7 -25.29,8.09 -6.34,5.4 -10.05,11.47 -11.13,18.21 H 356.9 c 2.43,-18.61 11.06,-34.39 25.9,-47.34 14.83,-12.95 35.2,-19.42 61.1,-19.42 25.9,0 46.87,7.56 62.92,22.66 16.05,15.11 24.08,33.86 24.08,56.24 v 131.51 h -46.53 z m -4.05,-82.95 v -6.07 H 437.8 c -25.63,0 -38.44,8.77 -38.44,26.3 0,8.1 2.83,14.51 8.5,19.22 5.66,4.72 13.62,7.08 23.87,7.08 15.38,0 27.31,-4.11 35.81,-12.34 8.5,-8.22 12.75,-19.62 12.75,-34.19 z"
         id="path1" />
      <path
         class="cls-1"
         d="M 577.4,234.7 V 125.45 H 545.03 V 76.89 H 577.4 V 18.22 h 50.58 v 58.67 h 46.53 v 48.56 h -46.53 v 99.13 c 0,9.45 4.72,14.16 14.16,14.16 h 32.37 v 44.51 H 630 c -16.99,0 -30.01,-4.25 -39.05,-12.74 -9.04,-8.5 -13.56,-20.44 -13.56,-35.81 z"
         id="path2" />
      <path
         class="cls-1"
         d="m 718.42,102.99 c 19.83,-20.09 44.98,-30.15 75.46,-30.15 30.48,0 55.64,10.05 75.47,30.15 19.83,20.1 29.74,45.79 29.74,77.09 0,31.3 -9.92,56.99 -29.74,77.08 -19.83,20.1 -44.99,30.15 -75.47,30.15 -30.48,0 -55.64,-10.05 -75.46,-30.15 -19.83,-20.09 -29.74,-45.79 -29.74,-77.08 0,-31.29 9.91,-56.99 29.74,-77.09 z m 36.62,120.78 c 10.52,11.33 23.47,16.99 38.84,16.99 15.37,0 28.33,-5.67 38.85,-16.99 10.52,-11.33 15.78,-25.89 15.78,-43.7 0,-17.81 -5.26,-32.37 -15.78,-43.7 -10.52,-11.33 -23.47,-16.99 -38.85,-16.99 -15.38,0 -28.32,5.66 -38.84,16.99 -10.52,11.33 -15.78,25.9 -15.78,43.7 0,17.8 5.26,32.37 15.78,43.7 z"
         id="path3" />
      <path
         class="cls-1"
         d="M 929.44,364.18 V 76.89 h 50.57 v 22.25 h 2.03 c 3.77,-4.85 8.5,-9.17 14.16,-12.95 13.49,-8.9 28.33,-13.35 44.51,-13.35 26.98,0 49.57,9.92 67.78,29.74 18.21,19.83 27.31,45.66 27.31,77.49 0,31.83 -9.1,57.66 -27.31,77.49 -18.21,19.83 -40.8,29.74 -67.78,29.74 -17.8,0 -32.92,-4.05 -45.32,-12.14 -5.39,-3.77 -9.84,-7.82 -13.35,-12.14 h -2.03 v 101.16 z m 141.22,-139.4 c 9.7,-10.65 14.56,-25.56 14.56,-44.71 0,-19.15 -4.86,-34.05 -14.56,-44.71 -9.71,-10.65 -22.4,-15.98 -38.04,-15.98 -15.64,0 -28.32,5.33 -38.03,15.98 -9.71,10.66 -14.57,25.56 -14.57,44.71 0,19.15 4.86,34.06 14.57,44.71 9.71,10.66 22.39,15.98 38.03,15.98 15.64,0 28.33,-5.32 38.04,-15.98 z"
         id="path4" />
      <path
         class="cls-1"
         d="m 1166.14,76.89 v 206.35 h 50.59 V 76.89 Z"
         id="path5" />
      <rect
         class="cls-2"
         x="1164.13"
         width="54.610001"
         height="48.549999"
         id="rect5"
         y="0" />
      <path
         class="cls-1"
         d="M 1252.2,283.25 V 0 h 50.58 v 283.25 z"
         id="path6" />
      <path
         class="cls-1"
         d="m 1481.1,222.56 h 52.6 c -1.35,5.13 -3.98,10.86 -7.89,17.19 -3.91,6.34 -9.45,13.35 -16.59,21.04 -7.15,7.69 -16.93,14.03 -29.34,19.02 -12.41,4.99 -26.17,7.49 -41.27,7.49 -30.49,0 -55.64,-10.05 -75.47,-30.15 -19.83,-20.09 -29.74,-45.79 -29.74,-77.08 0,-31.29 9.91,-56.99 29.74,-77.09 19.83,-20.09 44.98,-30.15 75.47,-30.15 28.32,0 52.26,9.92 71.82,29.74 19.55,19.83 29.34,44.31 29.34,73.44 0,2.43 -0.41,7.29 -1.22,14.57 l -0.81,5.67 h -153.76 c 2.16,14.57 8.23,26.3 18.21,35.2 9.98,8.9 22.11,13.35 36.42,13.35 10.79,0 19.96,-2.36 27.51,-7.08 7.55,-4.72 12.55,-9.77 14.97,-15.17 z m -97.12,-60.7 h 105.21 c -2.43,-13.76 -8.03,-24.95 -16.79,-33.58 -8.77,-8.63 -20.03,-12.95 -33.79,-12.95 -14.57,0 -26.51,4.25 -35.81,12.75 -9.31,8.5 -15.58,19.77 -18.82,33.79 z"
         id="path7" />
      <g
         id="g10"
         transform="matrix(0.20349758,0,0,0.19542038,2.446668,-3.609417)">
        <rect
           class="cls-2"
           x="0"
           y="286.42001"
           width="62.709999"
           height="37.950001"
           rx="2.5"
           ry="2.5"
           transform="rotate(180,31.355,305.395)"
           id="rect7" />
        <path
           class="cls-2"
           d="M 184.16,64.43 V 45.06 c 0,-5.13 4.16,-9.29 9.29,-9.29 h 85.86 c 5.13,0 9.29,4.16 9.29,9.29 v 96.45 c 0,5.13 -4.16,9.29 -9.29,9.29 h -19.37 c -5.13,0 -9.29,-4.16 -9.29,-9.29 v -58.5 c 0,-5.13 -4.16,-9.29 -9.29,-9.29 h -47.9 c -5.13,0 -9.29,-4.16 -9.29,-9.29 z"
           id="path8" />
        <path
           class="cls-2"
           d="m 0,196.49 v -19.37 c 0,-5.13 4.16,-9.29 9.29,-9.29 h 44.13 c 5.13,0 9.29,4.16 9.29,9.29 v 40.72 c 0,5.13 4.16,9.29 9.29,9.29 h 32.59 c 5.13,0 9.29,4.16 9.29,9.29 v 40.72 c 0,5.13 4.16,9.29 9.29,9.29 h 118.19 c 5.13,0 9.29,-4.16 9.29,-9.29 v -62.06 c 0,-5.13 -4.16,-9.29 -9.29,-9.29 h -50.2 c -5.13,0 -9.29,-4.16 -9.29,-9.29 v -47.44 c 0,-5.13 -4.16,-9.29 -9.29,-9.29 h -32.42 c -5.13,0 -9.29,-4.16 -9.29,-9.29 V 83.03 c 0,-5.13 -4.16,-9.29 -9.29,-9.29 H 95.3 c -5.13,0 -9.29,-4.16 -9.29,-9.29 V 45.08 c 0,-5.13 4.16,-9.29 9.29,-9.29 h 62.55 c 5.13,0 9.29,4.16 9.29,9.29 v 47.44 c 0,5.13 4.16,9.29 9.29,9.29 h 32.42 c 5.13,0 9.29,4.16 9.29,9.29 v 47.44 c 0,5.13 4.16,9.29 9.29,9.29 h 51.88 c 5.13,0 9.29,4.16 9.29,9.29 v 137.97 c 0,5.13 -4.16,9.29 -9.29,9.29 H 86.26 c -5.13,0 -9.29,-4.16 -9.29,-9.29 v -40.72 c 0,-5.13 -4.16,-9.29 -9.29,-9.29 H 35.09 c -5.13,0 -9.29,-4.16 -9.29,-9.29 v -40.72 c 0,-5.13 -4.16,-9.29 -9.29,-9.29 H 9.29 C 4.16,205.78 0,201.62 0,196.49 Z"
           id="path9" />
        <path
           class="cls-2"
           d="m 27.41,130.46 v -19.37 c 0,-5.13 4.16,-9.29 9.29,-9.29 h 67.58 c 5.13,0 9.29,4.16 9.29,9.29 v 47.44 c 0,5.13 4.16,9.29 9.29,9.29 h 35 c 5.13,0 9.29,4.16 9.29,9.29 v 40.72 c 0,5.13 4.16,9.29 9.29,9.29 h 43.37 c 5.13,0 9.29,4.16 9.29,9.29 v 19.37 c 0,5.13 -4.16,9.29 -9.29,9.29 h -80.27 c -5.13,0 -9.29,-4.16 -9.29,-9.29 v -40.72 c 0,-5.13 -4.16,-9.29 -9.29,-9.29 H 86.59 c -5.13,0 -9.29,-4.16 -9.29,-9.29 v -47.44 c 0,-5.13 -4.16,-9.29 -9.29,-9.29 h -31.3 c -5.13,0 -9.29,-4.16 -9.29,-9.29 z"
           id="path10" />
        <rect
           class="cls-2"
           x="27.41"
           y="35.77"
           width="37.950001"
           height="37.950001"
           rx="2.5"
           ry="2.5"
           transform="rotate(180,46.38,54.75)"
           id="rect10" />
      </g>
    </g>
  </g>
</svg>
