<?xml version="1.0" encoding="utf-8"?><!-- Uploaded to: SVG Repo, www.svgrepo.com, Generator: SVG Repo Mixer Tools -->
<svg fill="#000000" width="800px" height="800px" viewBox="0 0 256 256" id="Flat" xmlns="http://www.w3.org/2000/svg">
  <path d="M233.43359,68.90332c-.03613-.06763-.06445-.13721-.10254-.20435-.0166-.0288-.03613-.05444-.05273-.08325a19.99464,19.99464,0,0,0-7.47314-7.36865l-88-49.5a20.11668,20.11668,0,0,0-19.61036,0L30.19434,61.24731a19.99225,19.99225,0,0,0-7.49854,7.41626c-.02246.03955-.04932.07471-.07129.11451-.03515.06347-.061.12915-.09521.19311A19.97418,19.97418,0,0,0,20,78.67871v98.64258a20.02561,20.02561,0,0,0,10.19482,17.43164l88.00049,49.50049a19.9693,19.9693,0,0,0,9.00781,2.52588c.2334.01562.46485.03955.70167.0415.03564.00049.07177.00049.10791.00049.313,0,.6206-.023.92773-.04663a19.96907,19.96907,0,0,0,8.86475-2.52173l88.00048-49.5A20.02615,20.02615,0,0,0,236,177.32129V78.67871A19.97414,19.97414,0,0,0,233.43359,68.90332ZM128,33.76807l71.61523,40.28369-70.72412,40.17993L56.56787,73.94849ZM44,94.41968l72.88721,40.59741-.7085,80.56543L44,174.98193Zm96.18164,120.9602.70606-80.36108L212,94.61865v80.36328Z"/>
</svg>