<?xml version="1.0" encoding="UTF-8"?>
<svg viewBox="0 0 64 64" width="64" height="64" xmlns="http://www.w3.org/2000/svg">
  <style>.a{fill:#f95015;}</style>
  <g transform="matrix(0.20349758,0,0,0.19542038,2.446668,-3.609417)">
    <rect class="a" x="0" y="286.42" width="62.71" height="37.95" rx="2.5" ry="2.5" transform="rotate(180,31.355,305.395)"/>
    <path class="a" d="M184.16,64.43V45.06c0-5.13,4.16-9.29,9.29-9.29h85.86c5.13,0,9.29,4.16,9.29,9.29v96.45c0,5.13-4.16,9.29-9.29,9.29h-19.37c-5.13,0-9.29-4.16-9.29-9.29v-58.5c0-5.13-4.16-9.29-9.29-9.29h-47.9c-5.13,0-9.29-4.16-9.29-9.29z"/>
    <path class="a" d="m0,196.49v-19.37c0-5.13,4.16-9.29,9.29-9.29h44.13c5.13,0,9.29,4.16,9.29,9.29v40.72c0,5.13,4.16,9.29,9.29,9.29h32.59c5.13,0,9.29,4.16,9.29,9.29v40.72c0,5.13,4.16,9.29,9.29,9.29h118.19c5.13,0,9.29-4.16,9.29-9.29v-62.06c0-5.13-4.16-9.29-9.29-9.29h-50.2c-5.13,0-9.29-4.16-9.29-9.29v-47.44c0-5.13-4.16-9.29-9.29-9.29h-32.42c-5.13,0-9.29-4.16-9.29-9.29V83.03c0-5.13-4.16-9.29-9.29-9.29H95.3c-5.13,0-9.29-4.16-9.29-9.29V45.08c0-5.13,4.16-9.29,9.29-9.29h62.55c5.13,0,9.29,4.16,9.29,9.29v47.44c0,5.13,4.16,9.29,9.29,9.29h32.42c5.13,0,9.29,4.16,9.29,9.29v47.44c0,5.13,4.16,9.29,9.29,9.29h51.88c5.13,0,9.29,4.16,9.29,9.29v137.97c0,5.13-4.16,9.29-9.29,9.29H86.26c-5.13,0-9.29-4.16-9.29-9.29v-40.72c0-5.13-4.16-9.29-9.29-9.29H35.09c-5.13,0-9.29-4.16-9.29-9.29v-40.72c0-5.13-4.16-9.29-9.29-9.29H9.29C4.16,205.78,0,201.62,0,196.49z"/>
    <path class="a" d="m27.41,130.46v-19.37c0-5.13,4.16-9.29,9.29-9.29h67.58c5.13,0,9.29,4.16,9.29,9.29v47.44c0,5.13,4.16,9.29,9.29,9.29h35c5.13,0,9.29,4.16,9.29,9.29v40.72c0,5.13,4.16,9.29,9.29,9.29h43.37c5.13,0,9.29,4.16,9.29,9.29v19.37c0,5.13-4.16,9.29-9.29,9.29h-80.27c-5.13,0-9.29-4.16-9.29-9.29v-40.72c0-5.13-4.16-9.29-9.29-9.29H86.59c-5.13,0-9.29-4.16-9.29-9.29v-47.44c0-5.13-4.16-9.29-9.29-9.29h-31.3c-5.13,0-9.29-4.16-9.29-9.29z"/>
    <rect class="a" x="27.41" y="35.77" width="37.95" height="37.95" rx="2.5" ry="2.5" transform="rotate(180,46.38,54.75)"/>
  </g>
</svg>
