<?xml version="1.0" encoding="UTF-8" standalone="no"?>
<!DOCTYPE svg PUBLIC "-//W3C//DTD SVG 1.1//EN"
 "http://www.w3.org/Graphics/SVG/1.1/DTD/svg11.dtd">
<!-- Generated by graphviz version 13.1.0 (20250701.0955)
 -->
<!-- Title: PowerTree Pages: 1 -->
<svg width="248pt" height="116pt"
 viewBox="0.00 0.00 248.00 116.00" xmlns="http://www.w3.org/2000/svg" xmlns:xlink="http://www.w3.org/1999/xlink">
<g id="graph0" class="graph" transform="scale(1 1) rotate(0) translate(4 112)">
<title>PowerTree</title>
<polygon fill="white" stroke="none" points="-4,4 -4,-112 244.25,-112 244.25,4 -4,4"/>
<!-- ldo_3V3 -->
<g id="node1" class="node">
<title>ldo_3V3</title>
<polygon fill="none" stroke="black" points="222.25,-108 0,-108 0,-72 222.25,-72 222.25,-108"/>
<text xml:space="preserve" text-anchor="middle" x="111.12" y="-84.95" font-family="Times,serif" font-size="14.00">ldo_3V3 @ A volt{S|[550mV, 5.5V]}</text>
</g>
<!-- ldo_3V3&#45;&gt;ldo_3V3 -->
<g id="edge1" class="edge">
<title>ldo_3V3&#45;&gt;ldo_3V3</title>
<path fill="none" stroke="black" d="M222.69,-100.92C233.44,-98.7 240.25,-95.06 240.25,-90 240.25,-86.99 237.85,-84.49 233.65,-82.49"/>
<polygon fill="black" stroke="black" points="234.73,-79.16 224.14,-79.53 232.65,-85.84 234.73,-79.16"/>
</g>
<!-- micro -->
<g id="node2" class="node">
<title>micro</title>
<polygon fill="none" stroke="black" points="138.12,-36 84.12,-36 84.12,0 138.12,0 138.12,-36"/>
<text xml:space="preserve" text-anchor="middle" x="111.12" y="-12.95" font-family="Times,serif" font-size="14.00">micro</text>
</g>
<!-- ldo_3V3&#45;&gt;micro -->
<g id="edge2" class="edge">
<title>ldo_3V3&#45;&gt;micro</title>
<path fill="none" stroke="black" d="M111.12,-71.7C111.12,-64.41 111.12,-55.73 111.12,-47.54"/>
<polygon fill="black" stroke="black" points="114.63,-47.62 111.13,-37.62 107.63,-47.62 114.63,-47.62"/>
</g>
</g>
</svg>
