<svg width="414" height="98" viewBox="0 0 414 98" fill="none" xmlns="http://www.w3.org/2000/svg">
<path d="M130.24 76.19V70.75H129.7C128.76 71.91 127.49 73 125.89 74.01C122.41 76.19 118.42 77.27 113.92 77.27C107.83 77.27 102.95 75.64 99.29 72.37C95.63 69.11 93.8 65.12 93.8 60.41C93.8 54.75 95.76 50.26 99.67 46.92C103.59 43.59 109.24 41.92 116.64 41.92H129.15V40.83C129.15 37.71 128.26 35.21 126.49 33.32C124.71 31.44 122.34 30.49 119.37 30.49C116.4 30.49 114.27 31.22 112.57 32.67C110.87 34.12 109.87 35.75 109.58 37.56H95.98C96.63 32.56 98.95 28.31 102.94 24.83C106.93 21.35 112.4 19.61 119.37 19.61C126.34 19.61 131.97 21.64 136.28 25.7C140.59 29.76 142.75 34.8 142.75 40.82V76.17H130.24V76.19ZM129.15 53.89V52.26H117.73C110.84 52.26 107.4 54.62 107.4 59.33C107.4 61.51 108.16 63.23 109.68 64.5C111.2 65.77 113.34 66.4 116.1 66.4C120.23 66.4 123.44 65.3 125.73 63.08C128.01 60.87 129.16 57.81 129.16 53.89H129.15Z" fill="white"/>
<path d="M155.26 63.14V33.77H146.56V20.72H155.26V4.95001H168.86V20.72H181.37V33.77H168.86V60.42C168.86 62.96 170.13 64.23 172.67 64.23H181.37V76.19H169.41C164.84 76.19 161.34 75.05 158.91 72.76C156.48 70.48 155.27 67.27 155.27 63.13L155.26 63.14Z" fill="white"/>
<path d="M193.17 27.74C198.5 22.34 205.26 19.64 213.46 19.64C221.66 19.64 228.42 22.34 233.75 27.74C239.08 33.14 241.74 40.05 241.74 48.46C241.74 56.87 239.07 63.78 233.75 69.18C228.42 74.58 221.66 77.28 213.46 77.28C205.26 77.28 198.5 74.58 193.17 69.18C187.84 63.78 185.18 56.87 185.18 48.46C185.18 40.05 187.84 33.14 193.17 27.74ZM203.01 60.21C205.84 63.26 209.32 64.78 213.45 64.78C217.58 64.78 221.06 63.26 223.89 60.21C226.72 57.16 228.13 53.25 228.13 48.46C228.13 43.67 226.72 39.76 223.89 36.71C221.06 33.66 217.58 32.14 213.45 32.14C209.32 32.14 205.84 33.66 203.01 36.71C200.18 39.76 198.77 43.67 198.77 48.46C198.77 53.25 200.18 57.16 203.01 60.21Z" fill="white"/>
<path d="M249.89 97.95V20.72H263.49V26.7H264.03C265.04 25.4 266.32 24.24 267.84 23.22C271.47 20.83 275.46 19.63 279.8 19.63C287.05 19.63 293.13 22.3 298.02 27.62C302.91 32.95 305.36 39.89 305.36 48.45C305.36 57.01 302.91 63.95 298.02 69.28C293.13 74.61 287.05 77.28 279.8 77.28C275.02 77.28 270.95 76.19 267.62 74.02C266.17 73.01 264.97 71.92 264.03 70.76H263.49V97.95H249.89ZM287.85 60.48C290.46 57.62 291.76 53.61 291.76 48.46C291.76 43.31 290.45 39.31 287.85 36.44C285.24 33.58 281.83 32.14 277.62 32.14C273.41 32.14 270.01 33.57 267.4 36.44C264.79 39.31 263.48 43.31 263.48 48.46C263.48 53.61 264.79 57.62 267.4 60.48C270.01 63.35 273.42 64.78 277.62 64.78C281.82 64.78 285.24 63.35 287.85 60.48Z" fill="white"/>
<path d="M313.52 20.72V76.19H327.12V20.72H313.52Z" fill="white"/>
<path d="M327.66 0.0499878H312.98V13.1H327.66V0.0499878Z" fill="#F95015"/>
<path d="M336.65 76.19V0.0499878H350.25V76.19H336.65Z" fill="white"/>
<path d="M398.19 59.88H412.33C411.97 61.26 411.26 62.8 410.21 64.5C409.16 66.2 407.67 68.09 405.75 70.16C403.83 72.23 401.2 73.93 397.86 75.27C394.52 76.61 390.83 77.28 386.77 77.28C378.57 77.28 371.81 74.58 366.48 69.18C361.15 63.78 358.49 56.87 358.49 48.46C358.49 40.05 361.15 33.14 366.48 27.74C371.81 22.34 378.57 19.64 386.77 19.64C394.38 19.64 400.82 22.31 406.08 27.63C411.34 32.96 413.97 39.54 413.97 47.37C413.97 48.02 413.86 49.33 413.64 51.29L413.42 52.81H372.09C372.67 56.73 374.3 59.88 376.99 62.27C379.67 64.66 382.93 65.86 386.78 65.86C389.68 65.86 392.15 65.23 394.18 63.96C396.21 62.69 397.55 61.33 398.21 59.88H398.19ZM372.08 43.56H400.36C399.71 39.86 398.2 36.85 395.85 34.53C393.49 32.21 390.47 31.05 386.77 31.05C382.85 31.05 379.64 32.19 377.14 34.48C374.64 36.76 372.95 39.79 372.08 43.56Z" fill="white"/>
<path d="M2.54001 87.25H14.4C15.7807 87.25 16.9 86.1307 16.9 84.75V79.55C16.9 78.1693 15.7807 77.05 14.4 77.05H2.54001C1.1593 77.05 0.0400085 78.1693 0.0400085 79.55V84.75C0.0400085 86.1307 1.1593 87.25 2.54001 87.25Z" fill="#F95015"/>
<path d="M49.55 17.37V12.16C49.55 10.78 50.67 9.66003 52.05 9.66003H75.13C76.51 9.66003 77.63 10.78 77.63 12.16V38.09C77.63 39.47 76.51 40.59 75.13 40.59H69.92C68.54 40.59 67.42 39.47 67.42 38.09V22.36C67.42 20.98 66.3 19.86 64.92 19.86H52.04C50.66 19.86 49.54 18.74 49.54 17.36L49.55 17.37Z" fill="#F95015"/>
<path d="M0.0400085 52.87V47.66C0.0400085 46.28 1.16001 45.16 2.54001 45.16H14.4C15.78 45.16 16.9 46.28 16.9 47.66V58.61C16.9 59.99 18.02 61.11 19.4 61.11H28.16C29.54 61.11 30.66 62.23 30.66 63.61V74.56C30.66 75.94 31.78 77.06 33.16 77.06H64.93C66.31 77.06 67.43 75.94 67.43 74.56V57.88C67.43 56.5 66.31 55.38 64.93 55.38H51.43C50.05 55.38 48.93 54.26 48.93 52.88V40.13C48.93 38.75 47.81 37.63 46.43 37.63H37.72C36.34 37.63 35.22 36.51 35.22 35.13V22.37C35.22 20.99 34.1 19.87 32.72 19.87H25.66C24.28 19.87 23.16 18.75 23.16 17.37V12.16C23.16 10.78 24.28 9.66003 25.66 9.66003H42.48C43.86 9.66003 44.98 10.78 44.98 12.16V24.91C44.98 26.29 46.1 27.41 47.48 27.41H56.19C57.57 27.41 58.69 28.53 58.69 29.91V42.66C58.69 44.04 59.81 45.16 61.19 45.16H75.14C76.52 45.16 77.64 46.28 77.64 47.66V84.75C77.64 86.13 76.52 87.25 75.14 87.25H23.25C21.87 87.25 20.75 86.13 20.75 84.75V73.8C20.75 72.42 19.63 71.3 18.25 71.3H9.48999C8.10999 71.3 6.98999 70.18 6.98999 68.8V57.85C6.98999 56.47 5.86999 55.35 4.48999 55.35H2.54999C1.16999 55.35 0.0499878 54.23 0.0499878 52.85L0.0400085 52.87Z" fill="#F95015"/>
<path d="M7.41 35.12V29.91C7.41 28.53 8.53 27.41 9.91 27.41H28.08C29.46 27.41 30.58 28.53 30.58 29.91V42.66C30.58 44.04 31.7 45.16 33.08 45.16H42.49C43.87 45.16 44.99 46.28 44.99 47.66V58.61C44.99 59.99 46.11 61.11 47.49 61.11H59.15C60.53 61.11 61.65 62.23 61.65 63.61V68.82C61.65 70.2 60.53 71.32 59.15 71.32H37.57C36.19 71.32 35.07 70.2 35.07 68.82V57.87C35.07 56.49 33.95 55.37 32.57 55.37H23.33C21.95 55.37 20.83 54.25 20.83 52.87V40.12C20.83 38.74 19.71 37.62 18.33 37.62H9.92001C8.54001 37.62 7.42001 36.5 7.42001 35.12H7.41Z" fill="#F95015"/>
<path d="M9.91 19.87H15.11C16.4907 19.87 17.61 18.7507 17.61 17.37V12.17C17.61 10.7893 16.4907 9.67001 15.11 9.67001L9.91 9.67001C8.52929 9.67001 7.41 10.7893 7.41 12.17L7.41 17.37C7.41 18.7507 8.52929 19.87 9.91 19.87Z" fill="#F95015"/>
</svg>
