<svg xmlns="http://www.w3.org/2000/svg" width="880" height="360" viewBox="0 0 880 360"><rect width="100%" height="100%" fill="#f4f5f8"/><defs><style><![CDATA[.cell{fill:#ffffff;stroke:#d9dbe3;stroke-width:1} .g{fill:none;stroke:#6b7280;stroke-width:2;stroke-linecap:round;stroke-linejoin:round} .t{font: 600 14px ui-sans-serif, system-ui; fill:#4b5563} .s{font: 12px ui-sans-serif, system-ui; fill:#6b7280}]]></style></defs><rect class="cell" x="10" y="10" rx="10" ry="10" width="200" height="160"/><path class="g" d="M 71.00 72.40 L 71.00 103.60 L 149.00 103.60 L 149.00 72.40 L 71.00 72.40"/><text class="t" x="24" y="36">resistor</text><text class="s" x="24" y="56">KiCad canonical</text><rect class="cell" x="230" y="10" rx="10" ry="10" width="200" height="160"/><path class="g" d="M 291.00 73.38 L 369.00 73.38"/><path class="g" d="M 291.00 102.63 L 369.00 102.63"/><text class="t" x="244" y="36">capacitor</text><text class="s" x="244" y="56">KiCad canonical</text><rect class="cell" x="450" y="10" rx="10" ry="10" width="200" height="160"/><path class="g" d="M 515.20 93.80 L 584.80 93.80 L 584.80 86.07 L 515.20 86.07 L 515.20 93.80"/><path class="g" d="M 584.80 109.27 L 515.20 109.27 L 515.20 117.00 L 584.80 117.00 L 584.80 109.27"/><path class="g" d="M 522.93 66.73 L 538.40 66.73"/><path class="g" d="M 530.67 59.00 L 530.67 74.47"/><text class="t" x="464" y="36">capacitor_polarized</text><text class="s" x="464" y="56">KiCad canonical</text><rect class="cell" x="670" y="10" rx="10" ry="10" width="200" height="160"/><path class="g" d="M 809.00 83.15 L 808.91 84.41 L 808.66 85.66 L 808.25 86.86 L 807.68 88.00 L 806.97 89.06 L 806.13 90.01 L 805.17 90.85 L 804.11 91.55 L 802.97 92.12 L 801.77 92.52 L 800.52 92.77 L 799.25 92.85 L 797.98 92.77 L 796.73 92.52 L 795.53 92.12 L 794.39 91.55 L 793.33 90.85 L 792.37 90.01 L 791.53 89.06 L 790.82 88.00 L 790.25 86.86 L 789.84 85.66 L 789.59 84.41 L 789.50 83.15"/><path class="g" d="M 789.50 83.15 L 789.41 84.41 L 789.16 85.66 L 788.75 86.86 L 788.18 88.00 L 787.47 89.06 L 786.63 90.01 L 785.67 90.85 L 784.61 91.55 L 783.47 92.12 L 782.27 92.52 L 781.02 92.77 L 779.75 92.85 L 778.48 92.77 L 777.23 92.52 L 776.03 92.12 L 774.89 91.55 L 773.83 90.85 L 772.87 90.01 L 772.03 89.06 L 771.32 88.00 L 770.75 86.86 L 770.34 85.66 L 770.09 84.41 L 770.00 83.15"/><path class="g" d="M 770.00 83.15 L 769.91 84.41 L 769.66 85.66 L 769.25 86.86 L 768.68 88.00 L 767.97 89.06 L 767.13 90.01 L 766.17 90.85 L 765.11 91.55 L 763.97 92.12 L 762.77 92.52 L 761.52 92.77 L 760.25 92.85 L 758.98 92.77 L 757.73 92.52 L 756.53 92.12 L 755.39 91.55 L 754.33 90.85 L 753.37 90.01 L 752.53 89.06 L 751.82 88.00 L 751.25 86.86 L 750.84 85.66 L 750.59 84.41 L 750.50 83.15"/><path class="g" d="M 750.50 83.15 L 750.41 84.41 L 750.16 85.66 L 749.75 86.86 L 749.18 88.00 L 748.47 89.06 L 747.63 90.01 L 746.67 90.85 L 745.61 91.55 L 744.47 92.12 L 743.27 92.52 L 742.02 92.77 L 740.75 92.85 L 739.48 92.77 L 738.23 92.52 L 737.03 92.12 L 735.89 91.55 L 734.83 90.85 L 733.87 90.01 L 733.03 89.06 L 732.32 88.00 L 731.75 86.86 L 731.34 85.66 L 731.09 84.41 L 731.00 83.15"/><text class="t" x="684" y="36">inductor</text><text class="s" x="684" y="56">KiCad canonical</text><rect class="cell" x="10" y="190" rx="10" ry="10" width="200" height="160"/><path class="g" d="M 81.00 239.00 L 81.00 297.00"/><path class="g" d="M 139.00 239.00 L 139.00 297.00 L 81.00 268.00 L 139.00 239.00"/><path class="g" d="M 139.00 268.00 L 81.00 268.00"/><text class="t" x="24" y="216">diode</text><text class="s" x="24" y="236">KiCad canonical</text><rect class="cell" x="230" y="190" rx="10" ry="10" width="200" height="160"/><path class="g" d="M 311.35 271.39 L 291.00 291.74 L 301.17 291.74 L 291.00 291.74 L 291.00 281.57"/><path class="g" d="M 328.30 271.39 L 307.96 291.74 L 318.13 291.74 L 307.96 291.74 L 307.96 281.57"/><path class="g" d="M 335.09 261.22 L 369.00 261.22"/><path class="g" d="M 335.09 278.17 L 335.09 244.26"/><path class="g" d="M 369.00 278.17 L 369.00 244.26 L 335.09 261.22 L 369.00 278.17"/><text class="t" x="244" y="216">led</text><text class="s" x="244" y="236">KiCad canonical</text><rect class="cell" x="450" y="190" rx="10" ry="10" width="200" height="160"/><path class="g" d="M 545.17 239.00 L 554.83 239.00 L 554.83 297.00 L 545.17 297.00 L 545.17 239.00"/><path class="g" d="M 545.17 243.35 L 550.00 243.35 L 550.00 244.32 L 545.17 244.32 L 545.17 243.35"/><path class="g" d="M 545.17 253.02 L 550.00 253.02 L 550.00 253.98 L 545.17 253.98 L 545.17 253.02"/><path class="g" d="M 545.17 262.68 L 550.00 262.68 L 550.00 263.65 L 545.17 263.65 L 545.17 262.68"/><path class="g" d="M 545.17 272.35 L 550.00 272.35 L 550.00 273.32 L 545.17 273.32 L 545.17 272.35"/><path class="g" d="M 545.17 282.02 L 550.00 282.02 L 550.00 282.98 L 545.17 282.98 L 545.17 282.02"/><path class="g" d="M 545.17 291.68 L 550.00 291.68 L 550.00 292.65 L 545.17 292.65 L 545.17 291.68"/><text class="t" x="464" y="216">connector</text><text class="s" x="464" y="236">KiCad canonical</text><rect class="cell" x="670" y="190" rx="10" ry="10" width="200" height="160"/><circle class="g" cx="770.00" cy="268.00" r="29.00"/><text class="t" x="684" y="216">testpoint</text><text class="s" x="684" y="236">KiCad canonical</text></svg>