<svg xmlns="http://www.w3.org/2000/svg" width="880" height="380" viewBox="0 0 880 380"><rect width="100%" height="100%" fill="#f4f5f8"/><defs><style><![CDATA[.cell{fill:#ffffff;stroke:#d9dbe3;stroke-width:1} .g{fill:none;stroke:#6b7280;stroke-width:2;stroke-linecap:round;stroke-linejoin:round} .t{font: 600 14px ui-sans-serif, system-ui; fill:#4b5563} .s{font: 12px ui-sans-serif, system-ui; fill:#6b7280}]]></style></defs><rect class="cell" x="10" y="10" rx="10" ry="10" width="200" height="170"/><path class="g" d="M 56.00 86.40 L 56.00 129.60 L 164.00 129.60 L 164.00 86.40 L 56.00 86.40"/><text class="t" x="24" y="36">resistor</text><text class="s" x="24" y="56">KiCad canonical</text><rect class="cell" x="230" y="10" rx="10" ry="10" width="200" height="170"/><path class="g" d="M 277.20 88.20 L 382.80 88.20"/><path class="g" d="M 277.20 127.80 L 382.80 127.80"/><text class="t" x="244" y="36">capacitor</text><text class="s" x="244" y="56">KiCad canonical</text><rect class="cell" x="450" y="10" rx="10" ry="10" width="200" height="170"/><path class="g" d="M 504.88 115.52 L 595.12 115.52 L 595.12 105.49 L 504.88 105.49 L 504.88 115.52"/><path class="g" d="M 595.12 135.57 L 504.88 135.57 L 504.88 145.60 L 595.12 145.60 L 595.12 135.57"/><path class="g" d="M 514.91 80.43 L 534.96 80.43"/><path class="g" d="M 524.93 70.40 L 524.93 90.45"/><text class="t" x="464" y="36">capacitor_polarized</text><text class="s" x="464" y="56">KiCad canonical</text><rect class="cell" x="670" y="10" rx="10" ry="10" width="200" height="170"/><path class="g" d="M 825.20 101.13 L 825.07 102.93 L 824.72 104.69 L 824.13 106.39 L 823.33 108.00 L 822.33 109.50 L 821.14 110.85 L 819.78 112.03 L 818.28 113.03 L 816.67 113.83 L 814.96 114.40 L 813.20 114.75 L 811.40 114.87 L 809.60 114.75 L 807.84 114.40 L 806.13 113.83 L 804.52 113.03 L 803.02 112.03 L 801.66 110.85 L 800.47 109.50 L 799.47 108.00 L 798.67 106.39 L 798.08 104.69 L 797.73 102.93 L 797.60 101.13"/><path class="g" d="M 797.60 101.13 L 797.47 102.93 L 797.12 104.69 L 796.53 106.39 L 795.73 108.00 L 794.73 109.50 L 793.54 110.85 L 792.18 112.03 L 790.68 113.03 L 789.07 113.83 L 787.36 114.40 L 785.60 114.75 L 783.80 114.87 L 782.00 114.75 L 780.24 114.40 L 778.53 113.83 L 776.92 113.03 L 775.42 112.03 L 774.06 110.85 L 772.87 109.50 L 771.87 108.00 L 771.07 106.39 L 770.48 104.69 L 770.13 102.93 L 770.00 101.13"/><path class="g" d="M 770.00 101.13 L 769.87 102.93 L 769.52 104.69 L 768.93 106.39 L 768.13 108.00 L 767.13 109.50 L 765.94 110.85 L 764.58 112.03 L 763.08 113.03 L 761.47 113.83 L 759.76 114.40 L 758.00 114.75 L 756.20 114.87 L 754.40 114.75 L 752.64 114.40 L 750.93 113.83 L 749.32 113.03 L 747.82 112.03 L 746.46 110.85 L 745.27 109.50 L 744.27 108.00 L 743.47 106.39 L 742.88 104.69 L 742.53 102.93 L 742.40 101.13"/><path class="g" d="M 742.40 101.13 L 742.27 102.93 L 741.92 104.69 L 741.33 106.39 L 740.53 108.00 L 739.53 109.50 L 738.34 110.85 L 736.98 112.03 L 735.48 113.03 L 733.87 113.83 L 732.16 114.40 L 730.40 114.75 L 728.60 114.87 L 726.80 114.75 L 725.04 114.40 L 723.33 113.83 L 721.72 113.03 L 720.22 112.03 L 718.86 110.85 L 717.67 109.50 L 716.67 108.00 L 715.87 106.39 L 715.28 104.69 L 714.93 102.93 L 714.80 101.13"/><text class="t" x="684" y="36">inductor</text><text class="s" x="684" y="56">KiCad canonical</text><rect class="cell" x="10" y="200" rx="10" ry="10" width="200" height="170"/><path class="g" d="M 58.80 246.80 L 58.80 349.20"/><path class="g" d="M 161.20 246.80 L 161.20 349.20 L 58.80 298.00 L 161.20 246.80"/><path class="g" d="M 161.20 298.00 L 58.80 298.00"/><text class="t" x="24" y="226">diode</text><text class="s" x="24" y="246">KiCad canonical</text><rect class="cell" x="230" y="200" rx="10" ry="10" width="200" height="170"/><path class="g" d="M 302.74 302.96 L 273.00 332.70 L 287.87 332.70 L 273.00 332.70 L 273.00 317.83"/><path class="g" d="M 327.52 302.96 L 297.78 332.70 L 312.65 332.70 L 297.78 332.70 L 297.78 317.83"/><path class="g" d="M 337.43 288.09 L 387.00 288.09"/><path class="g" d="M 337.43 312.87 L 337.43 263.30"/><path class="g" d="M 387.00 312.87 L 387.00 263.30 L 337.43 288.09 L 387.00 312.87"/><text class="t" x="244" y="226">led</text><text class="s" x="244" y="246">KiCad canonical</text><rect class="cell" x="450" y="200" rx="10" ry="10" width="200" height="170"/><circle class="g" cx="550.00" cy="298.00" r="40.80"/><text class="t" x="464" y="226">testpoint</text><text class="s" x="464" y="246">KiCad canonical</text></svg>